<?xml version="1.0" encoding="utf-8"?>
<!-- Generator: Adobe Illustrator 19.0.0, SVG Export Plug-In . SVG Version: 6.00 Build 0)  -->
<svg version="1.1" xmlns="http://www.w3.org/2000/svg" xmlns:xlink="http://www.w3.org/1999/xlink" x="0px" y="0px"
	 viewBox="0 0 262.8 262.8" style="enable-background:new 0 0 262.8 262.8;" xml:space="preserve">
		<g>
			<polygon style="fill-rule:evenodd;clip-rule:evenodd;fill:#ff0000;" points="70.8,153.6 6.3,131.4 70.6,109.3 70.8,153.6 			"/>
			<polygon style="fill-rule:evenodd;clip-rule:evenodd;fill:#ff0000;" points="133.2,87.7 203.9,63.1 203.9,199.6 133,175.1 189.6,155.6 
				189.6,107 133.2,87.7 			"/>
			<polygon style="fill-rule:evenodd;clip-rule:evenodd;fill:#ff0000;" points="55.3,150.7 55.3,202.5 130.3,176.4 205.6,150.7 262.8,132 
				205.6,113.4 130.5,87.3 55.1,61.4 55.1,113.4 55.3,150.7 			"/>
			<polygon style="fill-rule:evenodd;clip-rule:evenodd;fill:#ff0000;" points="70.8,153.6 6.3,131.4 70.6,109.3 70.8,153.6 			"/>
			<path style="fill-rule:evenodd;clip-rule:evenodd;fill:#ff0000;" d="M0,131.4l72.8,25.1l-0.2-50.1L0,131.4L0,131.4z M68.5,112.2
				c0,4.7,0.1,33.8,0.2,38.5c-4.6-1.6-47.1-16.2-56-19.3C21.6,128.3,64,113.8,68.5,112.2L68.5,112.2z"/>
			<polygon style="fill-rule:evenodd;clip-rule:evenodd;" points="133.2,87.7 203.9,63.1 203.9,199.6 133,175.1 189.6,155.6 
				189.6,107 133.2,87.7 			"/>
			<path style="fill-rule:evenodd;clip-rule:evenodd;fill:#ff0000;" d="M126.8,87.7c0,0,58,19.9,60.7,20.8c0,2.7,0,42.9,0,45.6
				c-2.6,0.9-60.8,21-60.8,21l79.3,27.4V60.2L126.8,87.7L126.8,87.7z M201.9,66c0,5.4,0,125.3,0,130.7c-4.6-1.6-53.5-18.5-62.6-21.7
				c9.1-3.2,52.3-18.1,52.3-18.1v-51.5c0,0-43-14.7-52.1-17.9C148.6,84.5,197.2,67.6,201.9,66L201.9,66z"/>
			<polygon style="fill-rule:evenodd;clip-rule:evenodd;fill:#ff0000;" points="55.3,150.7 55.3,202.5 130.3,176.4 205.6,150.7 262.8,132 
				205.6,113.4 130.5,87.3 55.1,61.4 55.1,113.4 55.3,150.7 			"/>
			<path style="fill-rule:evenodd;clip-rule:evenodd;fill:#FFFFFF;" d="M84.2,108.8c2.2-0.4,3.7-0.4,4.9,0c0.6,0.2,1.5,1.2,1.5,2.1
				c0,0.6,0.4,2.1,0.4,3.5v43.1c0,1.2,0.7,7.2-6.3,11.4v2.7l22.4-7.3V161c-3.5,0-5.6-1.5-5.6-3.7v-24.2c2.4-0.6,3.9-1,5.2-1
				c1.1,0,2.4,0.6,3.2,1.2c0.6,0.4,1.3,1.4,1.5,2.1c0.2,0.6,0.7,2.1,0.9,3.3l0.7,3.7h1.7v-25.7h-2.2c-0.2,1.9-0.4,3.7-0.4,4.1
				c-0.2,1.4-0.9,2.9-1.3,3.9c-0.6,1.2-1.9,2.5-3,3.1c-2.2,1.2-4.3,1.5-6.5,2.3v-21.7c0-2.3,0-3.9,2.2-5.2l0.7-0.4
				c3.7-2.3,7.8-1,9.9,0.2c2.2,1,4.3,5.8,5,9.7l0.4,1.5h1.9V93.5l-37.2,13V108.8L84.2,108.8z M135.4,115.5c2.6,0,4.7-2.3,4.7-5
				c0-2.7-2.1-5-4.7-5c-2.8,0-4.9,2.3-4.9,5C130.5,113.2,132.6,115.5,135.4,115.5L135.4,115.5z M126.4,126.3
				C126.1,125.3,126.3,126,126.4,126.3L126.4,126.3z M135.2,154.6c1.5-0.2,3.7-1.7,4.7-2.7c1.5-1.7,3.2-5,4.1-8.9
				c-1.9-0.6,0.6,0.2-1.5-0.4c-0.4,1.5-1.3,3.3-1.7,4.1c-0.4,0.6-1.3,1.9-1.9,2.1l-0.7,0.2c-0.6-0.2-0.6-3.3-0.4-4.3v-24.6
				c-5.2,2.3-6.2,2.5-11.6,5c0.2,1.2,0.2,1.3,0.1,1.1c0.1,0.2,0.1,0.6,0.2,1l0.9-0.2c0.7-0.2,1.9-0.4,2.1-0.4
				c1.1-0.2,1.1,1.4,1.1,3.3v17.8c0,2.1-0.4,5.8,1.3,6.4C132,154.2,133.5,155,135.2,154.6L135.2,154.6z M163.8,144.3
				c0.6-0.2,0.9-0.2,1.3-0.4c6.5-2.7,11.2-10.2,11.4-17.8V125c0-1.9-0.4-3.7-1.1-5.4c-1.9-4.8-6.9-6.6-11.6-5.6
				c-0.6,0.2-1.1,0.4-1.7,0.6c-5.6,2.3-9.5,8.3-10.5,14.5c-0.7,4.6-0.4,11.2,3.9,14.3C158,145.1,161,145.1,163.8,144.3L163.8,144.3z
				 M163.4,115.5h0.4c5.4-0.8,6.5,9.7,6.5,13.1c0,5.2-0.6,12.4-6.2,14.1c0,0-0.2,0-0.4,0.2c-6.4,1.4-6.4-11.6-6.4-15.5
				C157.4,122.7,158.6,116.9,163.4,115.5L163.4,115.5z M6.3,131.4l64.4,22.2l-0.2-44.3L6.3,131.4L6.3,131.4z M133.2,87.7l56.4,19.3
				v48.5L133,175.1l71,24.6V63.1L133.2,87.7L133.2,87.7z"/>
		</g>
</svg>
